<?xml version="1.0" encoding="UTF-8"?>
<svg id="Capa_1" data-name="Capa 1" xmlns="http://www.w3.org/2000/svg" viewBox="0 0 778.63 503.51">
  <defs>
    <style>
      .cls-1 {
        fill: #fff;
      }
    </style>
  </defs>
  <path class="cls-1" d="M0,291.78V0c259.54,0,519.09,0,778.63,0,0,167.84,0,335.68,0,503.51-146.59,0-293.17,0-439.76,0,6.79-3.3,13.58-6.6,20.37-9.9-.32-1.35-.64-2.71-.97-4.06-17.44,9.45-33.47,10.53-45.52-7.02-7.09-10.32-6.08-25.38,2.19-34.94,12.62-14.6,27.49-12.85,43.52-4.71-1.2-3.14-2.52-5.76-4.65-7.06-19.77-12.1-47.57,1.07-50.87,23.93-3.04,21.07,3.98,31.05,30.76,43.76H0v-203.99c3.74,19.33,16.38,28.65,35.1,31.41,20.38,3.01,40.65,8.3,61.11,9.08,92.11,3.51,181.84-12.52,270.5-35.73,105.68-27.67,209.48-60.65,304.19-116.44,27.96-16.47,54.29-36.41,78.77-57.74,12.75-11.11,30.09-25.24,20.3-46.82-4.06-8.97-12.08-19.17-20.71-22.42-18.26-6.87-37.91-11.42-57.36-13.56-53.51-5.9-106.67,.79-159.64,7.96-9.11,1.23-15.22-1.14-22.08-6.64C402.35-37.82,246.93,8.42,203.18,139.46c-1.85,5.55-7.53,11.09-12.87,14.03-41.79,23.04-84.68,44.2-125.72,68.47C36.69,238.46,12.86,260.53,0,291.78ZM766.45,132.31c-.5-.43-1-.85-1.5-1.28-15.38,14.6-29.79,30.43-46.34,43.56-45.17,35.83-96.15,61.99-149.06,84.27-115.32,48.57-234.8,82.08-359.63,94.25-64.27,6.26-128.78,9.73-189.87-19.73,6.3,4.9,12.72,10.62,20.08,12.36,24.58,5.8,49.48,14.13,74.3,14.25,47.65,.24,95.32-4.64,143-6.89,5.41-.26,12.07,1.19,16.31,4.32,102.98,76.17,246.64,36.68,294.8-81.62,3.73-9.16,9.08-14.42,17.9-18.46,49.44-22.65,97.55-47.84,139.16-83.35,14.74-12.58,27.3-27.71,40.86-41.68ZM233.3,483.7c.88,5.55,.62,9.29,1.68,9.71,7.15,2.82,14.98,7.52,21.79,6.47,5.4-.83,12.82-8.51,13.63-13.99,.91-6.2-3.23-14.45-7.66-19.71-3.81-4.52-12.29-4.98-16.52-9.35-3.31-3.41-3.27-10.06-4.71-15.27,5.27-1.17,10.51-2.95,15.83-3.26,2.51-.15,5.18,2.51,7.77,3.89-2.51-10.63-10.38-12.23-17.58-9.72-5.28,1.84-12.17,7.41-12.78,12.05-.71,5.43,3.54,12.59,7.64,17.24,3.41,3.87,10.55,4.3,14.48,7.94,4.02,3.73,8.03,9.34,8.44,14.43,.29,3.61-4.86,10.19-8.53,10.97-4.95,1.05-10.94-1.88-16.24-3.79-2-.72-3.3-3.35-7.23-7.61Zm235.13,14.16c1.58,0,3.16-.01,4.74-.02,0-6.73,.39-13.5-.1-20.2-.66-9.03,3.15-12.33,12.02-11.72,5.04,.35,10.18-.8,15.27-1.27-.04-1.44-.09-2.88-.13-4.31-5.29,0-10.61-.35-15.86,.08-8.37,.69-11.39-2.76-11.38-11.1,0-8.3,2.95-11.75,11.35-11.18,5.01,.34,10.09-.43,15.14-.7-.09-1.28-.17-2.56-.26-3.84-7.97,0-15.98-.46-23.88,.27-2.46,.23-6.57,3.66-6.62,5.71-.51,19.41-.3,38.84-.3,58.27Zm69.46,.35c1.02,.04,2.03,.08,3.05,.12v-63.29c-1.02,0-2.03-.02-3.05-.02v63.2Zm-141.85,.07c1.01,0,2.02-.01,3.03-.02v-63.2h-3.03v63.22Z"/>
  <path d="M0,291.78c12.86-31.25,36.69-53.32,64.59-69.82,41.05-24.27,83.93-45.43,125.72-68.47,5.34-2.94,11.01-8.48,12.87-14.03C246.93,8.42,402.35-37.82,510.19,48.63c6.86,5.5,12.97,7.87,22.08,6.64,52.97-7.17,106.14-13.86,159.64-7.96,19.45,2.14,39.09,6.69,57.36,13.56,8.63,3.25,16.65,13.46,20.71,22.42,9.78,21.58-7.55,35.71-20.3,46.82-24.48,21.32-50.81,41.27-78.77,57.74-94.71,55.78-198.51,88.77-304.19,116.44-88.67,23.21-178.39,39.24-270.5,35.73-20.45-.78-40.72-6.07-61.11-9.08-18.72-2.76-31.36-12.08-35.1-31.41v-7.75ZM536.94,70.33c-.74,2.17-1.48,4.35-2.21,6.52,6.05,1.92,12.13,5.58,18.13,5.45,28.91-.62,57.76-1.3,85.53,8.45,8.25,2.89,15.9,7.48,23.82,11.29-34.87-13.89-92.33-21.11-114.64-11.26,25.62,38.25,31.95,81.18,27.82,128.65,29.97-16.03,55.78-32.07,77.49-53.72,8.43-8.4,16.26-17.99,22.02-28.33,12.25-21.99,6.76-40.7-15.81-51.55-38.95-18.72-80.67-16.97-122.14-15.49ZM195.4,188.01c-34.88,16.41-69.18,32.97-94.38,63.31-2.7,3.26-4.83,7.15-6.53,11.04-6.2,14.22-3.16,28.31,10.23,35.87,40.9,23.11,85.59,19.91,130.98,17.48-23.41-32.07-39.55-65.87-39.45-107.58-37.95,16.85-70.28,35.57-94.65,66.12,10.59-14.18,21.49-28.29,35.16-38.8,15.89-12.22,34.12-21.45,51.53-31.64,5.87-3.43,11.61-6.22,7.11-15.8Z"/>
  <path d="M333.7,503.51c-26.78-12.71-33.8-22.7-30.76-43.76,3.3-22.86,31.11-36.03,50.87-23.93,2.13,1.3,3.45,3.92,4.65,7.06-16.03-8.14-30.9-9.88-43.52,4.71-8.27,9.57-9.28,24.62-2.19,34.94,12.06,17.55,28.08,16.47,45.52,7.02,.32,1.35,.64,2.71,.97,4.06-6.79,3.3-13.58,6.6-20.37,9.9h-5.17Z"/>
  <path d="M766.45,132.31c-13.56,13.97-26.12,29.09-40.86,41.68-41.61,35.52-89.71,60.71-139.16,83.35-8.82,4.04-14.17,9.3-17.9,18.46-48.16,118.3-191.82,157.8-294.8,81.62-4.24-3.14-10.9-4.58-16.31-4.32-47.68,2.26-95.35,7.14-143,6.89-24.82-.13-49.72-8.45-74.3-14.25-7.36-1.74-13.77-7.45-20.08-12.36,61.09,29.46,125.6,25.99,189.87,19.73,124.82-12.17,244.3-45.67,359.63-94.25,52.91-22.29,103.89-48.44,149.06-84.27,16.55-13.13,30.96-28.96,46.34-43.56,.5,.43,1,.85,1.5,1.28Z"/>
  <path d="M233.3,483.7c3.92,4.26,5.23,6.89,7.23,7.61,5.3,1.91,11.28,4.83,16.24,3.79,3.67-.78,8.83-7.36,8.53-10.97-.41-5.08-4.42-10.7-8.44-14.43-3.92-3.64-11.07-4.06-14.48-7.94-4.1-4.66-8.35-11.81-7.64-17.24,.61-4.64,7.5-10.21,12.78-12.05,7.21-2.51,15.07-.91,17.58,9.72-2.6-1.38-5.27-4.04-7.77-3.89-5.32,.31-10.56,2.09-15.83,3.26,1.45,5.21,1.41,11.86,4.71,15.27,4.23,4.37,12.71,4.82,16.52,9.35,4.43,5.27,8.57,13.52,7.66,19.71-.81,5.48-8.22,13.16-13.63,13.99-6.82,1.05-14.64-3.65-21.79-6.47-1.06-.42-.8-4.17-1.68-9.71Z"/>
  <path d="M468.43,497.86c0-19.42-.21-38.85,.3-58.27,.05-2.05,4.16-5.48,6.62-5.71,7.9-.74,15.91-.27,23.88-.27,.09,1.28,.17,2.56,.26,3.84-5.05,.27-10.13,1.04-15.14,.7-8.4-.58-11.34,2.88-11.35,11.18,0,8.34,3.01,11.79,11.38,11.1,5.25-.43,10.57-.08,15.86-.08,.04,1.44,.09,2.88,.13,4.31-5.09,.47-10.24,1.62-15.27,1.27-8.88-.61-12.68,2.69-12.02,11.72,.49,6.7,.1,13.46,.1,20.2-1.58,0-3.16,.01-4.74,.02Z"/>
  <path d="M537.89,498.21v-63.2c1.02,0,2.03,.02,3.05,.02v63.29c-1.02-.04-2.03-.08-3.05-.12Z"/>
  <path d="M396.04,498.28v-63.21h3.03v63.2c-1.01,0-2.02,.01-3.03,.02Z"/>
  <path class="cls-1" d="M536.94,70.33c41.47-1.47,83.19-3.23,122.14,15.49,22.58,10.85,28.06,29.56,15.81,51.55-5.76,10.35-13.6,19.93-22.02,28.33-21.72,21.66-47.52,37.7-77.49,53.72,4.13-47.47-2.2-90.39-27.82-128.65,22.31-9.85,79.77-2.64,114.64,11.26-7.92-3.81-15.57-8.4-23.82-11.29-27.76-9.74-56.62-9.07-85.53-8.45-6,.13-12.08-3.54-18.13-5.45,.74-2.17,1.48-4.35,2.21-6.52Z"/>
  <path class="cls-1" d="M195.4,188.01c4.49,9.59-1.24,12.37-7.11,15.8-17.41,10.19-35.64,19.42-51.53,31.64-13.67,10.51-24.56,24.63-35.16,38.8,24.37-30.55,56.7-49.27,94.65-66.12-.1,41.71,16.04,75.51,39.45,107.58-45.38,2.43-90.07,5.64-130.98-17.48-13.39-7.57-16.43-21.65-10.23-35.87,1.7-3.9,3.83-7.79,6.53-11.04,25.2-30.34,59.5-46.9,94.38-63.31Z"/>
</svg>